<svg width="48" height="48" viewBox="0 0 48 48" fill="none" xmlns="http://www.w3.org/2000/svg">
<path fill-rule="evenodd" clip-rule="evenodd" d="M23.9999 11.1666C24.4439 11.1666 24.8495 11.4187 25.046 11.8169L28.3798 18.5708L35.8353 19.6606C36.2746 19.7248 36.6394 20.0328 36.7763 20.4551C36.9133 20.8775 36.7986 21.3409 36.4806 21.6507L31.0868 26.9042L32.3597 34.3261C32.4348 34.7638 32.2549 35.2062 31.8956 35.4672C31.5363 35.7282 31.0599 35.7626 30.6668 35.5559L23.9999 32.0498L17.3329 35.5559C16.9398 35.7626 16.4635 35.7282 16.1042 35.4672C15.7449 35.2062 15.5649 34.7638 15.64 34.3261L16.9129 26.9042L11.5192 21.6507C11.2011 21.3409 11.0865 20.8775 11.2234 20.4551C11.3604 20.0328 11.7252 19.7248 12.1645 19.6606L19.6199 18.5708L22.9537 11.8169C23.1503 11.4187 23.5558 11.1666 23.9999 11.1666ZM23.9999 14.9691L21.441 20.153C21.2712 20.497 20.9432 20.7355 20.5636 20.791L14.8397 21.6277L18.9806 25.6609C19.2557 25.9289 19.3814 26.3152 19.3164 26.6938L18.3394 32.3902L23.4568 29.699C23.7968 29.5203 24.203 29.5203 24.5429 29.699L29.6603 32.3902L28.6833 26.6938C28.6184 26.3152 28.744 25.9289 29.0192 25.6609L33.1601 21.6277L27.4361 20.791C27.0566 20.7355 26.7285 20.497 26.5587 20.153L23.9999 14.9691Z" fill="#70B6F6"/>
</svg>
