<svg width="16" height="16" viewBox="0 0 16 16" fill="none" xmlns="http://www.w3.org/2000/svg">
<path fill-rule="evenodd" clip-rule="evenodd" d="M3.00007 5.4C3.00007 2.774 4.9721 0 8.00007 0C11.0284 0 13.0001 2.77378 13.0001 5.4C13.0001 7.83407 13.4735 9.32855 13.896 10.1806C14.108 10.6083 14.3112 10.8823 14.4453 11.038C14.5126 11.1162 14.5632 11.1654 14.5899 11.1898C14.5995 11.1986 14.606 11.2042 14.6091 11.2069C14.945 11.4647 15.0827 11.9072 14.9504 12.3112C14.8159 12.7221 14.4325 13 14.0001 13H9.17216C9.33659 13.003 9.50257 13.0467 9.6549 13.135C10.1326 13.4122 10.2952 14.0241 10.018 14.5018C9.81294 14.8553 9.51858 15.1488 9.16443 15.3527C8.81028 15.5567 8.40876 15.6641 8.00007 15.6641C7.59138 15.6641 7.18986 15.5567 6.8357 15.3527C6.48155 15.1488 6.18719 14.8553 5.9821 14.5018C5.70495 14.0241 5.86753 13.4122 6.34524 13.135C6.49757 13.0467 6.66355 13.003 6.82797 13H2.00007C1.56768 13 1.18426 12.7221 1.04971 12.3112C0.917453 11.9072 1.05512 11.4647 1.39101 11.2069C1.39415 11.2042 1.40066 11.1986 1.41022 11.1898C1.43689 11.1654 1.48752 11.1162 1.55481 11.038C1.68889 10.8823 1.8921 10.6083 2.10416 10.1806C2.52666 9.32855 3.00007 7.83407 3.00007 5.4ZM3.92982 11H12.0703C11.5063 9.83345 11.0001 8.04611 11.0001 5.4C11.0001 3.5852 9.65189 2 8.00007 2C6.34857 2 5.00007 3.58548 5.00007 5.4C5.00007 8.04611 4.49388 9.83345 3.92982 11ZM6.8643 13C7.20273 13.0062 7.52977 13.184 7.71203 13.4982C7.74131 13.5486 7.78332 13.5905 7.83387 13.6196C7.88442 13.6487 7.94173 13.6641 8.00007 13.6641C8.0584 13.6641 8.11571 13.6487 8.16626 13.6196C8.21681 13.5905 8.25883 13.5486 8.2881 13.4982C8.47036 13.184 8.7974 13.0062 9.13584 13H6.8643Z" fill="#526ED3"/>
</svg>
