<svg width="16" height="16" viewBox="0 0 16 16" fill="none" xmlns="http://www.w3.org/2000/svg">
<path fill-rule="evenodd" clip-rule="evenodd" d="M4.428 3C4.29466 3 4.17682 3.05069 4.10012 3.12224C4.02706 3.19039 4 3.26778 4 3.333V12.1316L7.44534 9.83492C7.78122 9.61103 8.21878 9.61103 8.55466 9.83492L12 12.1316V3.333C12 3.26721 11.9726 3.18972 11.9002 3.1225L11.8975 3.11996C11.824 3.0511 11.7086 3 11.571 3H4.428ZM2.73588 1.65976C3.19518 1.23131 3.80534 1 4.428 1H11.571C12.1928 1 12.8028 1.22845 13.2631 1.65877C13.728 2.09146 14 2.69342 14 3.333V14C14 14.3688 13.797 14.7076 13.4719 14.8817C13.1467 15.0557 12.7522 15.0366 12.4453 14.8321L8 11.8688L3.55466 14.8321C3.2478 15.0366 2.85327 15.0557 2.52812 14.8817C2.20298 14.7076 2 14.3688 2 14V3.333C2 2.69222 2.27294 2.09161 2.73588 1.65976Z" fill="#526ED3"/>
</svg>
